<?xml version="1.0" encoding="utf-8"?>
<svg version="1.1" id="Layer_1" xmlns="http://www.w3.org/2000/svg" xmlns:xlink="http://www.w3.org/1999/xlink" x="0px" y="0px"
     viewBox="0 0 36 36" enable-background="new 0 0 36 36" xml:space="preserve">
  <path
     style="fill:#000000;fill-opacity:1;fill-rule:nonzero"
     d="M 18.042027,9.2611883e-5 C 13.947156,-0.01590739 10.004154,1.3557326 6.6698727,3.9905326 c -0.6971583,0.55091 -2.2911033,2.16506 -2.8443468,2.88041 -2.0879875,2.69979 -3.28986644,5.6044294 -3.72711611,9.0076294 -0.13121305,1.02126 -0.13121305,3.20841 0,4.22967 0.43724967,3.40319 1.63912861,6.30784 3.72711611,9.00763 0.5532435,0.71535 2.1471885,2.32949 2.8443468,2.8804 3.1306552,2.4739 6.6878713,3.8066 10.6164503,3.97747 0.186966,0.008 0.434073,0.019 0.549127,0.0242 0.431679,0.0192 2.066141,-0.0996 2.771783,-0.20153 5.905362,-0.8527 11.031351,-4.60913 13.623168,-9.98321 0.965237,-2.0014 1.51789,-4.03113 1.731135,-6.35764 0.07707,-0.84089 0.03233,-2.90547 -0.08098,-3.7336 -0.462699,-3.38176 -1.728359,-6.3689394 -3.790524,-8.9465194 -2.863929,-3.57972 -6.967637,-5.93301999 -11.482799,-6.58486999 -0.858875,-0.12399 -1.715328,-0.1871 -2.565206,-0.19042999812 z M 13.025443,9.5117126 c 0.02674,-0.002 0.05535,0.005 0.08915,0.0177 0.296942,0.11431 14.349959,8.2578294 14.412453,8.3517994 0.04751,0.0714 0.05458,0.13457 0.02157,0.19346 -0.02695,0.0481 -3.282473,1.95217 -7.2345,4.2313 -3.952027,2.27913 -7.237637,4.14449 -7.301343,4.1453 -0.06371,8.1e-4 -0.140192,-0.044 -0.169968,-0.0995 -0.03667,-0.0684 -0.0541,-2.77325 -0.0541,-8.38101 0,-8.1854094 0.0011,-8.2811394 0.103615,-8.3834594 0.04923,-0.0491 0.08855,-0.073 0.133114,-0.0755 z"/>
</svg>
